<svg xmlns="http://www.w3.org/2000/svg" viewBox="0 0 868.92 875.52"><defs><style>.cls-1{fill:none;stroke:#121111;stroke-miterlimit:10;}</style></defs><title>Asset 1</title><g id="Layer_2" data-name="Layer 2"><g id="Layer_1-2" data-name="Layer 1"><path id="path_logo" class="cls-1" stroke-width=".5" stroke="#191818" d="M.42,612.52c10.47-16.07,29-38.47,57-45,20.26-4.72,43.78,5.46,90,26,49.89,22.17,103.06,36.8,152,61,9.18,4.54,28.88,14.48,53,11,14.64-2.11,38-10.2,42-26,3.88-15.45-13.62-27.08-8-38,5.84-11.33,28.38-6,30-12,2.51-9.29-51.77-22.12-105-64-17.31-13.62-11.09-11.89-51-49-53.09-49.37-62-50.52-80-73-10-12.55-21.16-39.54-43-93-29.07-71.16-54.91-139.77-55-140l2.06-5.31,4.94-12.69c.39-.59,3.37-4.93,8-5,5.45-.09,9,5.8,10,10,1.14,4.9-.3,11.55-4,13-6.83,2.68-24-11.31-21-22,1.8-6.35,10.61-11.08,18-10,12.87,1.88,19.52,21.08,24,33,19.36,51.5,43.82,94.74,46,94,.78-.27-.38-6.17-2-12a133,133,0,0,0-22-44c-29.87-40.32-14.45-51.11-43-85-3.68-4.37-15.75-18.21-20-38-2.27-10.58-.79-15.76,2-19,5.1-5.92,14.41-5.13,16-5,3.2.27,9.66.82,13,6s1.9,12.49-2,17c-4.7,5.44-12.88,6.72-18,4-10.29-5.48-8.84-27.52-1-32s22.37,8.29,24,6c1.37-1.93-9.54-10.11-15-25a27.35,27.35,0,0,1-1.83-9.68c0-2.74,0-8.64,3.83-13.32s12.67-9.32,20-5a14.88,14.88,0,0,1,6,18c-.17.41-2.72,6.33-9,8-7.06,1.88-13.92-2.91-17-8-4.22-7-2.63-16.72,2-21,9.11-8.43,32-1.62,43,12,4.37,5.41,4.88,9.43,8,18,5.55,15.22,10.84,21.42,23,41,27.31,44,20.9,45.38,41,73,11.87,16.31,17.59,20.62,25,36,5.84,12.13,9,23.36,13,23,3-.27,5.58-7.07,6-13,.93-13.26-9-18.73-27-46a123.42,123.42,0,0,1-15-34c-2-7.46-2.65-12.76,0-15,4.74-4,15.67,5.48,20,2,1.89-1.52,3.29-6.13-5-26-8.66-20.75-20.42-40.22-38-58a52,52,0,0,0-10.14-8.46,39.15,39.15,0,0,0-9.86-4.54c-5.12-1.49-15.25-4.44-20,1-3.6,4.13-3.23,11.93,1,17a14.81,14.81,0,0,0,17,4c4-1.89,3.39-4.7,8-9s12.17-7.82,19-7c5,.61,8.69,3.39,16,11a236.83,236.83,0,0,1,21,25c9.66,13.55,4,4.19,24,31,23.49,31.55,23,33.43,40,56,13,17.27,23.66,28.51,45,51a97.25,97.25,0,0,0,27,19c7.66,3.65,16.39,7.68,22,4,5.05-3.32,3.07-9.94,10-15,1.38-1,6.06-4.11,11-3,5.56,1.24,8.52,7.15,10,10,10.24,19.62,16.1,19.53,23,35,4.32,9.68,4.88,16.13,6,65,.94,40.89.85,49.39,6,63a115.68,115.68,0,0,0,18,31c13.41,16.59,22.05,17.88,42,36,5.54,5,41.39,1.05,30,33-77,216-46.53-55.11,42,48,47,54.7,69.68,83.18,75,86,68,36,112.59,28.73,153,77,14.73,17.6,18.92,40.51,29,85a526.92,526.92,0,0,1,13,114"/><path class="cls-1" d="M213.42,17.52c84.48,100.25,146.76,203.76,149,202,1.09-.85-3.39-7.11-9-23-4.09-11.58-8.67-24.56-9-39-.52-23.12,10-44.64,14-44,2,.32,2.67,7.88,4,23,1.76,20,.42,23.94,3,35,2.1,9,3.66,15.68,9,22,9.42,11.13,28.37,18.58,37,11,5.28-4.64,6-14.33,3-21-2.85-6.27-8.65-9-17-13-11.05-5.26-20.17-6.43-20-8,.21-1.88,13,1.06,19-6,3.05-3.62,4.12-9.65,2-14-3.21-6.57-11.08-4-21-11-1-.71-14.71-10.73-13-23,.72-5.14,4.23-11.38,10-13,9.18-2.58,17.53,8.37,18,9,6.38,8.6,5.33,19.3,5,24-3.11,44.92,22.3,92,25,97,4.35,8.07,8.07,13.1,12,24,1.33,3.68,6,17.33,7,38,1,22.21-3.6,24-3,50a207.76,207.76,0,0,0,3,31c2.58,14.83,4,23.19,9,33,4.16,8.22,11.44,15.81,26,31,7.86,8.19,13.46,14,22,21,10.62,8.71,12.64,8.49,24,17,13,9.73,21.57,18.41,34,31,13.32,13.48,13.41,19.08,23,25,6.64,4.1,15.78,10.73,26,8,4.63-1.24,11.86-5,13-11,.86-4.57-2.1-8.68-19-25-12.86-12.41-19.28-18.62-23-21-9.67-6.19-22.36-14.32-38-12-15.2,2.26-24.73,13.13-29,18-3.66,4.18-9.8,12.34-17,39-6,22.07-3.52,23-8,40-6.17,23.4-11.8,44.78-28,64-5.8,6.88-13.92,14.64-13,25,.08.9.85,9.28,7,14,15.38,11.82,50.06-10.22,56-14,5.74-3.65,15.49-11.77,35-28,12.13-10.09,15.42-13.22,23-18,3.42-2.15,7.73-4.66,31-15,25-11.09,29.22-12.31,34-18,6.59-7.84,13.63-21.2,9-28-1.27-1.87-5.08-5.69-44,0-18.13,2.65-33.55,5.85-47,9-18.26,4.28-27.39,6.41-34,9-18.47,7.23-24.43,13.89-47,23-4.62,1.86-10.81,6-20,7a53.8,53.8,0,0,1-19-2c-36.75-11.1-158.61-156.51-183-185-9.17-10.72-30.33-35-23-51,2.46-5.36,8.48-10.59,15-11,14-.88,25.26,20.74,28,19s-10.68-20.24-4-31c3.83-6.17,11.31-5.06,12-9,1.2-6.89-21.45-11.82-39-28-8.24-7.6-9.68-12.43-24-41-22.61-45.1-21.83-38.6-35-67-16.39-35.36-10.44-30.37-25-61-12.49-26.29-22.8-53.57-35-80-2.62-5.67-8.18-17.63-4-30,.55-1.63,3.83-14.38,11-15,2.31-.2,4.48,1.31,7,3a25.73,25.73,0,0,1,7,7"/><path class="cls-1" d="M378.42,93.52a92.66,92.66,0,0,0-20,36c-11.58,40.81,14.85,79.65,27,100,54.14,90.73,63.38,182,61,183-9.08,3.75-83.57-71.45-62-135,8-23.55,26.88-38.45,41-47"/></g></g></svg>