<svg xmlns="http://www.w3.org/2000/svg" viewBox="0 0 1938.27 5061.67"><defs><style>.cls-1,.cls-2{fill:none;stroke-miterlimit:10;}.cls-1{stroke:#121111;}.cls-2{stroke:#000;}</style></defs><title>Asset 8</title><g id="Layer_2" data-name="Layer 2"><g id="Layer_1-2" data-name="Layer 1"><path class="cls-1" d="M1442,262c84.48,100.25,146.76,203.76,149,202,1.09-.85-3.39-7.11-9-23-4.09-11.58-8.67-24.56-9-39-.52-23.12,10-44.64,14-44,2,.32,2.67,7.88,4,23,1.76,20,.42,23.94,3,35,2.1,9,3.66,15.68,9,22,9.42,11.13,28.37,18.58,37,11,5.28-4.64,6-14.33,3-21-2.85-6.27-8.65-9-17-13-11.05-5.26-20.17-6.43-20-8,.21-1.88,13,1.06,19-6,3.05-3.62,4.12-9.65,2-14-3.21-6.57-11.08-4-21-11-1-.71-14.71-10.73-13-23,.72-5.14,4.23-11.38,10-13,9.18-2.58,17.53,8.37,18,9,6.38,8.6,5.33,19.3,5,24-3.11,44.92,22.3,92,25,97,4.35,8.07,8.07,13.1,12,24,1.33,3.68,6,17.33,7,38,1,22.21-3.6,24-3,50a207.76,207.76,0,0,0,3,31c2.58,14.83,4,23.19,9,33,4.16,8.22,11.44,15.81,26,31,7.86,8.19,13.46,14,22,21,10.62,8.71,12.64,8.49,24,17,13,9.73,21.57,18.41,34,31,13.32,13.48,13.41,19.08,23,25,6.64,4.1,15.78,10.73,26,8,4.63-1.24,11.86-5,13-11,.86-4.57-2.1-8.68-19-25-12.86-12.41-19.28-18.62-23-21-9.67-6.19-22.36-14.32-38-12-15.2,2.26-24.73,13.13-29,18-3.66,4.18-9.8,12.34-17,39-6,22.07-3.52,23-8,40-6.17,23.4-11.8,44.78-28,64-5.8,6.88-13.92,14.64-13,25,.08.9.85,9.28,7,14,15.38,11.82,50.06-10.22,56-14,5.74-3.65,15.49-11.77,35-28,12.13-10.09,15.42-13.22,23-18,3.42-2.15,7.73-4.66,31-15,25-11.09,29.22-12.31,34-18,6.59-7.84,13.63-21.2,9-28-1.27-1.87-5.08-5.69-44,0-18.13,2.65-33.55,5.85-47,9-18.26,4.28-27.39,6.41-34,9-18.47,7.23-24.43,13.89-47,23-4.62,1.86-10.81,6-20,7a53.8,53.8,0,0,1-19-2c-36.75-11.1-158.61-156.51-183-185-9.17-10.72-30.33-35-23-51,2.46-5.36,8.48-10.59,15-11,14-.88,25.26,20.74,28,19s-10.68-20.24-4-31c3.83-6.17,11.31-5.06,12-9,1.2-6.89-21.45-11.82-39-28-8.24-7.6-9.68-12.43-24-41-22.61-45.1-21.83-38.6-35-67-16.39-35.36-10.44-30.37-25-61-12.49-26.29-22.8-53.57-35-80-2.62-5.67-8.18-17.63-4-30,.55-1.63,3.83-14.38,11-15,2.31-.2,4.48,1.31,7,3a25.73,25.73,0,0,1,7,7" transform="translate(-140.11 -244.48)"/><path class="cls-1" d="M1607,338a92.66,92.66,0,0,0-20,36c-11.58,40.81,14.85,79.65,27,100,54.14,90.73,63.38,182,61,183-9.08,3.75-83.57-71.45-62-135,8-23.55,26.88-38.45,41-47" transform="translate(-140.11 -244.48)"/><path class="cls-1" d="M259,5306c11.27-35.7,21.56-86.43,12-144-21.29-128.21-120.29-165.58-109-238,14.9-95.63,207.51-158.49,222-137,11.83,17.56-75.89,120.09-117,105-52.41-19.24-64-242.46,39-351,100.81-106.26,277.8-67.17,441-55,589.92,44,1168.37-251.25,1160-371-7-99.87-404-178-437-152-14,11.06,187.37,147.39,312,90,135.29-62.29,194.28-348.17,82-516-83.67-125.07-239.18-149.81-386-171-466.57-67.32-652.64,158.86-879,31-191.89-108.39-278.27-395.23-219-453,49.74-48.47,239.52,27.81,242,97,2.26,62.91-149.06,154.65-257,122-184.48-55.81-292.65-490.27-176-821,67.82-192.28,203.55-326.6,168-363-29.78-30.49-163.23,24.65-160,59,11.41,121.48,1756.07,239.73,1874-145,51.23-167.11-195.77-457.43-339-433-85.59,14.6-158.86,145.82-148,157,8.07,8.3,83.32-28.16,94-81,5.43-26.86-2.58-74-192-224-185.48-146.87-247.07-156.51-278-245-24.65-70.52-17.75-155.34,21-210,9.83-13.86,27.48-38.05,57-45,20.18-4.75,43.73,5.43,90,26,49.89,22.17,103.06,36.8,152,61,9.18,4.54,28.88,14.48,53,11,14.64-2.11,38-10.2,42-26,3.88-15.45-13.62-27.08-8-38,5.84-11.33,28.38-6,30-12,2.51-9.29-51.77-22.12-105-64-17.31-13.62-11.09-11.89-51-49-53.11-49.39-62-50.52-80-73-8.22-10.28-19.81-37.86-43-93-26.26-62.44-53.54-136.79-54.84-139.59a2.89,2.89,0,0,1-.16-.41c-.64-2.17,1.43-4.53,2.06-5.31,4.09-5,5.41-13.48,5.27-13.54s-.49.7-.33.85c.42.41,3.94-4.77,8-5s8.77,4.75,10,10c1.14,4.9-.3,11.55-4,13-6.83,2.68-24-11.31-21-22,1.8-6.35,10.61-11.08,18-10,11.58,1.69,17.55,17.32,24,33,20.73,50.39,43.74,94.77,46,94,.88-.3-.81-7.63-2-12-4.22-15.55-10.66-25.45-22-44-9.77-16-14.66-24-15.85-26.76-6.68-15.62-5.06-21.37-12.52-36.17-1.66-3.3-1.33-2.19-14.64-22.07-13.65-20.38-18-27.48-20-38-1.18-6.09-2.65-14.31,2-19,3-3,9.2-5.37,15.16-5.06l.84.06c1.51.14,9.46.89,13,6,3.3,4.76,2.07,12.3-2,17-4.7,5.44-12.88,6.72-18,4-10.29-5.48-8.84-27.52-1-32s22.37,8.29,24,6c1.37-1.93-9.54-10.11-15-25a27.35,27.35,0,0,1-1.83-9.68c0-2.74,0-8.64,3.83-13.32s12.67-9.32,20-5a14.88,14.88,0,0,1,6,18c-.17.41-2.72,6.33-9,8-7.06,1.88-13.92-2.91-17-8-4.07-6.75-2.91-16.35,2-21,9-8.54,32-1.62,43,12,4.37,5.41,4.88,9.43,8,18,5.55,15.22,10.84,21.42,23,41,27.31,44,20.9,45.38,41,73,11.87,16.31,17.59,20.62,25,36,5.84,12.13,9,23.36,13,23,3-.27,5.58-7.07,6-13,.93-13.26-9-18.73-27-46a123.42,123.42,0,0,1-15-34c-2-7.46-2.65-12.76,0-15,4.75-4,15.63,5.57,20,2,4.08-3.33-.73-15.46-5-26a183,183,0,0,0-25.06-43.33A157.81,157.81,0,0,0,1429,265a52.44,52.44,0,0,0-10.14-8.46A39.19,39.19,0,0,0,1409,252c-5.12-1.49-15.24-4.43-20,1-3.59,4.09-3.22,11.9,1,17a14.77,14.77,0,0,0,17,4c4-1.89,3.39-4.7,8-9s12.17-7.82,19-7c5,.61,8.69,3.39,16,11a236.83,236.83,0,0,1,21,25c9.66,13.55,4,4.19,24,31,23.49,31.55,23,33.43,40,56,13,17.27,23.66,28.51,45,51a97.25,97.25,0,0,0,27,19c7.66,3.65,16.39,7.68,22,4,5.05-3.32,3.07-9.94,10-15,1.38-1,6.06-4.11,11-3,5.56,1.24,8.52,7.15,10,10,10.24,19.62,16.1,19.53,23,35,4.32,9.68,4.88,16.13,6,65,.94,40.89.85,49.39,6,63a116.53,116.53,0,0,0,18,31c9,11.58,21.26,27.41,42,36,15.06,6.24,25.57,4.93,30.28,13.83,3.66,6.92,1.14,14.93-.28,19.17-10.13,30.24-38.38,88.27-42.32,86-3.68-2.08,12.58-57.38,40.68-62.22,10.83-1.87,21.55,4.09,43.63,24.18a505.34,505.34,0,0,1,75,86" transform="translate(-140.11 -244.48)"/><path class="cls-2" d="M0,0" transform="translate(-140.11 -244.48)"/></g></g></svg>